<svg width="38" height="30" viewBox="0 0 38 30" fill="none" xmlns="http://www.w3.org/2000/svg">
<path d="M36.5 27.8125H34.9375V8.75C34.9375 8.50136 34.8387 8.2629 34.6629 8.08709C34.4871 7.91127 34.2486 7.8125 34 7.8125H24C23.7514 7.8125 23.5129 7.91127 23.3371 8.08709C23.1613 8.2629 23.0625 8.50136 23.0625 8.75V15.3125H14.9375V1.25C14.9375 1.00136 14.8387 0.762903 14.6629 0.587087C14.4871 0.411272 14.2486 0.3125 14 0.3125H4C3.75136 0.3125 3.5129 0.411272 3.33709 0.587087C3.16127 0.762903 3.0625 1.00136 3.0625 1.25V27.8125H1.5C1.25136 27.8125 1.0129 27.9113 0.837087 28.0871C0.661272 28.2629 0.5625 28.5014 0.5625 28.75C0.5625 28.9986 0.661272 29.2371 0.837087 29.4129C1.0129 29.5887 1.25136 29.6875 1.5 29.6875H36.5C36.7486 29.6875 36.9871 29.5887 37.1629 29.4129C37.3387 29.2371 37.4375 28.9986 37.4375 28.75C37.4375 28.5014 37.3387 28.2629 37.1629 28.0871C36.9871 27.9113 36.7486 27.8125 36.5 27.8125ZM24.9375 9.6875H33.0625V27.8125H24.9375V9.6875ZM23.0625 17.1875V27.8125H14.9375V17.1875H23.0625ZM4.9375 2.1875H13.0625V27.8125H4.9375V2.1875ZM9.9375 6.25V8.75C9.9375 8.99864 9.83873 9.2371 9.66291 9.41291C9.4871 9.58873 9.24864 9.6875 9 9.6875C8.75136 9.6875 8.5129 9.58873 8.33709 9.41291C8.16127 9.2371 8.0625 8.99864 8.0625 8.75V6.25C8.0625 6.00136 8.16127 5.7629 8.33709 5.58709C8.5129 5.41127 8.75136 5.3125 9 5.3125C9.24864 5.3125 9.4871 5.41127 9.66291 5.58709C9.83873 5.7629 9.9375 6.00136 9.9375 6.25ZM9.9375 13.75V16.25C9.9375 16.4986 9.83873 16.7371 9.66291 16.9129C9.4871 17.0887 9.24864 17.1875 9 17.1875C8.75136 17.1875 8.5129 17.0887 8.33709 16.9129C8.16127 16.7371 8.0625 16.4986 8.0625 16.25V13.75C8.0625 13.5014 8.16127 13.2629 8.33709 13.0871C8.5129 12.9113 8.75136 12.8125 9 12.8125C9.24864 12.8125 9.4871 12.9113 9.66291 13.0871C9.83873 13.2629 9.9375 13.5014 9.9375 13.75ZM9.9375 21.25V23.75C9.9375 23.9986 9.83873 24.2371 9.66291 24.4129C9.4871 24.5887 9.24864 24.6875 9 24.6875C8.75136 24.6875 8.5129 24.5887 8.33709 24.4129C8.16127 24.2371 8.0625 23.9986 8.0625 23.75V21.25C8.0625 21.0014 8.16127 20.7629 8.33709 20.5871C8.5129 20.4113 8.75136 20.3125 9 20.3125C9.24864 20.3125 9.4871 20.4113 9.66291 20.5871C9.83873 20.7629 9.9375 21.0014 9.9375 21.25ZM18.0625 23.75V21.25C18.0625 21.0014 18.1613 20.7629 18.3371 20.5871C18.5129 20.4113 18.7514 20.3125 19 20.3125C19.2486 20.3125 19.4871 20.4113 19.6629 20.5871C19.8387 20.7629 19.9375 21.0014 19.9375 21.25V23.75C19.9375 23.9986 19.8387 24.2371 19.6629 24.4129C19.4871 24.5887 19.2486 24.6875 19 24.6875C18.7514 24.6875 18.5129 24.5887 18.3371 24.4129C18.1613 24.2371 18.0625 23.9986 18.0625 23.75ZM28.0625 23.75V21.25C28.0625 21.0014 28.1613 20.7629 28.3371 20.5871C28.5129 20.4113 28.7514 20.3125 29 20.3125C29.2486 20.3125 29.4871 20.4113 29.6629 20.5871C29.8387 20.7629 29.9375 21.0014 29.9375 21.25V23.75C29.9375 23.9986 29.8387 24.2371 29.6629 24.4129C29.4871 24.5887 29.2486 24.6875 29 24.6875C28.7514 24.6875 28.5129 24.5887 28.3371 24.4129C28.1613 24.2371 28.0625 23.9986 28.0625 23.75ZM28.0625 16.25V13.75C28.0625 13.5014 28.1613 13.2629 28.3371 13.0871C28.5129 12.9113 28.7514 12.8125 29 12.8125C29.2486 12.8125 29.4871 12.9113 29.6629 13.0871C29.8387 13.2629 29.9375 13.5014 29.9375 13.75V16.25C29.9375 16.4986 29.8387 16.7371 29.6629 16.9129C29.4871 17.0887 29.2486 17.1875 29 17.1875C28.7514 17.1875 28.5129 17.0887 28.3371 16.9129C28.1613 16.7371 28.0625 16.4986 28.0625 16.25Z" fill="#4CAA42"/>
</svg>
