<svg width="34" height="34" viewBox="0 0 34 34" fill="none" xmlns="http://www.w3.org/2000/svg">
<path d="M29.5001 7L27.0551 8.83333C26.4781 9.26607 25.7763 9.5 25.0551 9.5H19.4584C18.9161 9.50021 18.387 9.6681 17.9438 9.98065C17.5006 10.2932 17.1648 10.7351 16.9825 11.2459C16.8002 11.7567 16.7802 12.3114 16.9254 12.834C17.0706 13.3565 17.3738 13.8214 17.7934 14.165L21.1267 16.8917C22.4178 17.9479 23.4241 19.3104 24.054 20.8549C24.684 22.3995 24.9175 24.0771 24.7334 25.735L24.7001 26.035C24.5674 27.2284 24.2742 28.3984 23.8284 29.5133L22.8334 32M1.16675 14.5L6.56341 13.6C7.08689 13.5126 7.62367 13.5515 8.1291 13.7134C8.63452 13.8753 9.09399 14.1555 9.46926 14.5308C9.84454 14.9061 10.1248 15.3656 10.2867 15.871C10.4486 16.3764 10.4875 16.9132 10.4001 17.4367L10.1751 18.7817C9.97977 19.9549 10.1657 21.1599 10.7057 22.2197C11.2456 23.2795 12.1111 24.1383 13.1751 24.67C14.0238 25.0947 14.7024 25.7962 15.0987 26.6585C15.495 27.5209 15.5855 28.4926 15.3551 29.4133L14.5001 32.8333" stroke="#4CAA42"/>
<path d="M17.0001 32.8333C25.7446 32.8333 32.8334 25.7445 32.8334 17C32.8334 8.25548 25.7446 1.16666 17.0001 1.16666C8.25557 1.16666 1.16675 8.25548 1.16675 17C1.16675 25.7445 8.25557 32.8333 17.0001 32.8333Z" stroke="#4CAA42"/>
</svg>
