<svg width="40" height="40" viewBox="0 0 40 40" fill="none" xmlns="http://www.w3.org/2000/svg">
<path d="M16.526 9.216C17.9088 6.82057 20.1866 5.07258 22.8583 4.35656C25.5299 3.64055 28.3766 4.01517 30.772 5.39801C33.1674 6.78084 34.9154 9.05863 35.6314 11.7303C36.3475 14.4019 35.9728 17.2486 34.59 19.644L34.196 20.324C34.0634 20.5537 33.845 20.7213 33.5888 20.7899C33.3326 20.8585 33.0597 20.8226 32.83 20.69L25.9 16.69L22.038 23.45C24.718 24.264 27.022 26.114 28.668 28.506L28.488 28.5C27.8229 28.497 27.1756 28.7151 26.648 29.12C24.728 26.614 21.976 25 19 25C16.024 25 13.272 26.614 11.352 29.12C10.7753 28.6773 10.0575 28.4592 9.332 28.506C11.572 25.25 15.026 23 19 23C19.3253 23 19.6473 23.0147 19.966 23.044L24.168 15.69L16.5 11.26C16.2703 11.1274 16.1027 10.909 16.0341 10.6528C15.9655 10.3966 16.0014 10.1237 16.134 9.89401L16.526 9.216ZM18.368 10.032L21.774 11.998L21.796 11.964C22.868 10.484 23.876 9.346 25.194 8.348C26.1784 7.62017 27.2329 6.99239 28.342 6.47401C26.5232 5.83828 24.5415 5.84463 22.7268 6.49199C20.9121 7.13934 19.3738 8.38866 18.368 10.032ZM28.008 15.596C28.938 13.964 29.384 12.676 29.54 11.426C29.666 10.42 29.61 9.39601 29.422 8.17401C28.164 8.77001 27.21 9.33001 26.402 9.94201C25.33 10.754 24.476 11.688 23.514 13.002L28.008 15.596ZM29.74 16.596L32.962 18.456C33.8354 16.8496 34.1629 15.0029 33.8952 13.1941C33.6276 11.3853 32.7792 9.7126 31.478 8.42801C31.62 9.54801 31.658 10.604 31.524 11.676C31.326 13.256 30.764 14.8 29.74 16.596ZM10.476 31.186C10.4075 30.9803 10.2739 30.8024 10.0955 30.6792C9.91701 30.5559 9.70334 30.4941 9.48666 30.5029C9.26999 30.5117 9.06204 30.5907 8.89418 30.728C8.72631 30.8652 8.60762 31.0534 8.556 31.264C8.216 32.652 7.572 33.414 6.838 33.858C6.07 34.32 5.092 34.5 4 34.5C3.73478 34.5 3.48043 34.6054 3.29289 34.7929C3.10536 34.9804 3 35.2348 3 35.5C3 35.7652 3.10536 36.0196 3.29289 36.2071C3.48043 36.3946 3.73478 36.5 4 36.5C5.276 36.5 6.666 36.296 7.872 35.57C8.59089 35.1357 9.19675 34.5374 9.64 33.824C12.026 36.866 16.684 36.852 19 33.792C21.354 36.9 26.12 36.866 28.47 33.678C29.1083 34.5466 29.9407 35.254 30.9008 35.744C31.8609 36.2339 32.9221 36.4928 34 36.5C34.2652 36.5 34.5196 36.3946 34.7071 36.2071C34.8946 36.0196 35 35.7652 35 35.5C35 35.2348 34.8946 34.9804 34.7071 34.7929C34.5196 34.6054 34.2652 34.5 34 34.5C32.034 34.5 30.074 33.22 29.426 31.196C29.3613 30.9956 29.235 30.8207 29.065 30.6963C28.8951 30.5719 28.6902 30.5043 28.4796 30.5032C28.269 30.5021 28.0634 30.5675 27.8922 30.6901C27.721 30.8127 27.5928 30.9863 27.526 31.186C26.24 35.064 21.206 35.014 19.946 31.346C19.8784 31.1488 19.7509 30.9777 19.5813 30.8565C19.4117 30.7353 19.2085 30.6702 19 30.6702C18.7915 30.6702 18.5883 30.7353 18.4187 30.8565C18.2491 30.9777 18.1216 31.1488 18.054 31.346C16.794 35.014 11.762 35.064 10.476 31.186Z" fill="#4CAA42"/>
</svg>
