<svg width="36" height="31" viewBox="0 0 36 31" fill="none" xmlns="http://www.w3.org/2000/svg">
<path d="M34.25 20.6875C34.4986 20.6875 34.7371 20.5887 34.9129 20.4129C35.0887 20.2371 35.1875 19.9986 35.1875 19.75C35.1875 19.5014 35.0887 19.2629 34.9129 19.0871C34.7371 18.9113 34.4986 18.8125 34.25 18.8125C30.7518 18.8099 27.2719 19.3179 23.9203 20.3203C22.7549 19.5676 21.5518 18.8751 20.3156 18.2453C24.764 16.5445 29.4876 15.6775 34.25 15.6875C34.4986 15.6875 34.7371 15.5887 34.9129 15.4129C35.0887 15.2371 35.1875 14.9986 35.1875 14.75C35.1875 14.5014 35.0887 14.2629 34.9129 14.0871C34.7371 13.9113 34.4986 13.8125 34.25 13.8125C33.3125 13.8125 32.375 13.8469 31.4375 13.9094V8.5C31.4375 8.35446 31.4036 8.21091 31.3385 8.08074C31.2734 7.95056 31.1789 7.83733 31.0625 7.75L21.0625 0.25C20.9002 0.128292 20.7028 0.0625 20.5 0.0625C20.2972 0.0625 20.0998 0.128292 19.9375 0.25L9.9375 7.75C9.82107 7.83733 9.72656 7.95056 9.66147 8.08074C9.59639 8.21091 9.5625 8.35446 9.5625 8.5V14.5578C6.9879 14.0619 4.37192 13.8123 1.75 13.8125C1.50136 13.8125 1.2629 13.9113 1.08709 14.0871C0.911272 14.2629 0.8125 14.5014 0.8125 14.75C0.8125 14.9986 0.911272 15.2371 1.08709 15.4129C1.2629 15.5887 1.50136 15.6875 1.75 15.6875C7.60792 15.6759 13.3928 16.9872 18.6732 19.5236C23.9535 22.06 28.5929 25.756 32.2453 30.3359C32.3333 30.4458 32.4448 30.5344 32.5716 30.5953C32.6985 30.6561 32.8374 30.6876 32.9781 30.6875C33.1546 30.6871 33.3273 30.6369 33.4765 30.5427C33.6257 30.4485 33.7453 30.3141 33.8215 30.155C33.8977 29.9959 33.9275 29.8184 33.9074 29.6432C33.8873 29.4679 33.8181 29.3018 33.7078 29.1641C32.7929 28.0226 31.8181 26.9305 30.7875 25.8922C31.9367 25.7567 33.0928 25.6884 34.25 25.6875C34.4986 25.6875 34.7371 25.5887 34.9129 25.4129C35.0887 25.2371 35.1875 24.9986 35.1875 24.75C35.1875 24.5014 35.0887 24.2629 34.9129 24.0871C34.7371 23.9113 34.4986 23.8125 34.25 23.8125C32.5112 23.8125 30.7754 23.9584 29.0609 24.2484C28.0578 23.3474 27.0161 22.501 25.9359 21.7094C28.6549 21.0291 31.4472 20.6859 34.25 20.6875ZM17.6875 17.025V11.9375H23.3125V15.2906C21.504 15.792 19.7325 16.4185 18.0109 17.1656L17.6875 17.025ZM11.4375 8.96875L20.5 2.17188L29.5625 8.96875V14.0797C28.0918 14.2463 26.6313 14.493 25.1875 14.8188V11C25.1875 10.7514 25.0887 10.5129 24.9129 10.3371C24.7371 10.1613 24.4986 10.0625 24.25 10.0625H16.75C16.5014 10.0625 16.2629 10.1613 16.0871 10.3371C15.9113 10.5129 15.8125 10.7514 15.8125 11V16.2891C14.3802 15.7663 12.9196 15.325 11.4375 14.9672V8.96875ZM19.1203 30.2688C19.0522 30.3714 18.9646 30.4596 18.8624 30.5283C18.7602 30.5971 18.6454 30.645 18.5247 30.6694C18.404 30.6937 18.2796 30.6941 18.1588 30.6704C18.0379 30.6467 17.9229 30.5994 17.8203 30.5312C13.0599 27.364 7.46775 25.6784 1.75 25.6875C1.50136 25.6875 1.2629 25.5887 1.08709 25.4129C0.911272 25.2371 0.8125 24.9986 0.8125 24.75C0.8125 24.5014 0.911272 24.2629 1.08709 24.0871C1.2629 23.9113 1.50136 23.8125 1.75 23.8125C7.83685 23.8028 13.7901 25.5971 18.8578 28.9688C18.9604 29.0368 19.0486 29.1245 19.1174 29.2267C19.1861 29.3289 19.234 29.4436 19.2584 29.5644C19.2828 29.6851 19.2831 29.8094 19.2595 29.9303C19.2358 30.0512 19.1885 30.1662 19.1203 30.2688ZM26.9016 29.0797C26.9895 29.1659 27.0596 29.2685 27.1078 29.3818C27.1561 29.4951 27.1815 29.6167 27.1828 29.7398C27.184 29.8629 27.161 29.9851 27.115 30.0993C27.069 30.2135 27.001 30.3175 26.9148 30.4055C26.8287 30.4934 26.726 30.5635 26.6127 30.6117C26.4995 30.66 26.3778 30.6855 26.2547 30.6867C26.1316 30.6879 26.0094 30.6649 25.8952 30.6189C25.781 30.5729 25.677 30.5049 25.5891 30.4188C19.2334 24.1635 10.6675 20.6669 1.75 20.6875C1.50136 20.6875 1.2629 20.5887 1.08709 20.4129C0.911272 20.2371 0.8125 19.9986 0.8125 19.75C0.8125 19.5014 0.911272 19.2629 1.08709 19.0871C1.2629 18.9113 1.50136 18.8125 1.75 18.8125C11.1601 18.7898 20.1994 22.4791 26.9062 29.0797H26.9016Z" fill="#4CAA42"/>
</svg>
