<svg width="33" height="33" viewBox="0 0 33 33" fill="none" xmlns="http://www.w3.org/2000/svg">
<path d="M13.526 5.216C14.9088 2.82057 17.1866 1.07258 19.8583 0.356562C22.5299 -0.359452 25.3766 0.0151669 27.772 1.39801C30.1674 2.78084 31.9154 5.05863 32.6314 7.73027C33.3475 10.4019 32.9728 13.2486 31.59 15.644L31.196 16.324C31.0634 16.5537 30.845 16.7213 30.5888 16.7899C30.3326 16.8585 30.0597 16.8226 29.83 16.69L22.9 12.69L19.038 19.45C21.718 20.264 24.022 22.114 25.668 24.506L25.488 24.5C24.8229 24.497 24.1756 24.7151 23.648 25.12C21.728 22.614 18.976 21 16 21C13.024 21 10.272 22.614 8.352 25.12C7.77531 24.6773 7.05749 24.4592 6.332 24.506C8.572 21.25 12.026 19 16 19C16.3253 19 16.6473 19.0147 16.966 19.044L21.168 11.69L13.5 7.26001C13.2703 7.12739 13.1027 6.90898 13.0341 6.6528C12.9655 6.39663 13.0014 6.12368 13.134 5.89401L13.526 5.216ZM15.368 6.032L18.774 7.99801L18.796 7.964C19.868 6.484 20.876 5.346 22.194 4.348C23.1784 3.62017 24.2329 2.99239 25.342 2.47401C23.5232 1.83828 21.5415 1.84463 19.7268 2.49199C17.9121 3.13934 16.3738 4.38866 15.368 6.032ZM25.008 11.596C25.938 9.96401 26.384 8.676 26.54 7.426C26.666 6.42 26.61 5.39601 26.422 4.17401C25.164 4.77001 24.21 5.33001 23.402 5.94201C22.33 6.75401 21.476 7.68801 20.514 9.00201L25.008 11.596ZM26.74 12.596L29.962 14.456C30.8354 12.8496 31.1629 11.0029 30.8952 9.1941C30.6276 7.38534 29.7792 5.7126 28.478 4.42801C28.62 5.54801 28.658 6.604 28.524 7.676C28.326 9.25601 27.764 10.8 26.74 12.596ZM7.476 27.186C7.40746 26.9803 7.27391 26.8024 7.09546 26.6792C6.91701 26.5559 6.70334 26.4941 6.48666 26.5029C6.26999 26.5117 6.06204 26.5907 5.89418 26.728C5.72631 26.8652 5.60762 27.0534 5.556 27.264C5.216 28.652 4.572 29.414 3.838 29.858C3.07 30.32 2.092 30.5 1 30.5C0.734784 30.5 0.48043 30.6054 0.292893 30.7929C0.105357 30.9804 0 31.2348 0 31.5C0 31.7652 0.105357 32.0196 0.292893 32.2071C0.48043 32.3946 0.734784 32.5 1 32.5C2.276 32.5 3.666 32.296 4.872 31.57C5.59089 31.1357 6.19675 30.5374 6.64 29.824C9.026 32.866 13.684 32.852 16 29.792C18.354 32.9 23.12 32.866 25.47 29.678C26.1083 30.5466 26.9407 31.254 27.9008 31.744C28.8609 32.2339 29.9221 32.4928 31 32.5C31.2652 32.5 31.5196 32.3946 31.7071 32.2071C31.8946 32.0196 32 31.7652 32 31.5C32 31.2348 31.8946 30.9804 31.7071 30.7929C31.5196 30.6054 31.2652 30.5 31 30.5C29.034 30.5 27.074 29.22 26.426 27.196C26.3613 26.9956 26.235 26.8207 26.065 26.6963C25.8951 26.5719 25.6902 26.5043 25.4796 26.5032C25.269 26.5021 25.0634 26.5675 24.8922 26.6901C24.721 26.8127 24.5928 26.9863 24.526 27.186C23.24 31.064 18.206 31.014 16.946 27.346C16.8784 27.1488 16.7509 26.9777 16.5813 26.8565C16.4117 26.7353 16.2085 26.6702 16 26.6702C15.7915 26.6702 15.5883 26.7353 15.4187 26.8565C15.2491 26.9777 15.1216 27.1488 15.054 27.346C13.794 31.014 8.762 31.064 7.476 27.186Z" fill="#4CAA42"/>
</svg>
