<svg width="24" height="31" viewBox="0 0 24 31" fill="none" xmlns="http://www.w3.org/2000/svg">
<path d="M11.1666 28.5267V20.6417H6.99992C5.14325 20.6417 3.56825 19.9944 2.27492 18.7C0.980474 17.4067 0.333252 15.8317 0.333252 13.975C0.333252 12.5006 0.813252 11.195 1.77325 10.0583C2.73214 8.92389 3.90381 8.05833 5.28825 7.46166C5.51714 5.27166 6.23992 3.58722 7.45659 2.40833C8.67325 1.22944 10.1877 0.640553 11.9999 0.641664C13.8121 0.642775 15.3266 1.23166 16.5433 2.40833C17.7599 3.585 18.4827 5.26944 18.7116 7.46166C20.1171 8.015 21.2949 8.87055 22.2449 10.0283C23.1927 11.1839 23.6666 12.4994 23.6666 13.975C23.6666 15.8306 23.0199 17.4056 21.7266 18.7C20.431 19.9944 18.8555 20.6417 16.9999 20.6417H12.8333V28.525H21.1666C21.4033 28.525 21.601 28.605 21.7599 28.765C21.9199 28.925 21.9999 29.1233 21.9999 29.36C21.9999 29.5967 21.9199 29.7944 21.7599 29.9533C21.5999 30.1122 21.4021 30.1922 21.1666 30.1933H2.83325C2.59659 30.1933 2.39881 30.1133 2.23992 29.9533C2.08103 29.7933 2.00103 29.595 1.99992 29.3583C1.99881 29.1217 2.07881 28.9239 2.23992 28.765C2.40103 28.6061 2.59881 28.5261 2.83325 28.525L11.1666 28.5267ZM6.99992 18.975H16.9999C18.3888 18.975 19.5694 18.4889 20.5416 17.5167C21.5138 16.5444 21.9999 15.3639 21.9999 13.975C21.9999 12.825 21.6244 11.8172 20.8733 10.9517C20.1221 10.0861 19.1921 9.43778 18.0833 9.00666L17.1666 8.64L17.0449 7.55666C16.856 5.81555 16.3127 4.50555 15.4149 3.62666C14.5171 2.74778 13.3788 2.30778 11.9999 2.30666C10.621 2.30555 9.4827 2.74555 8.58492 3.62666C7.68714 4.50778 7.14381 5.81777 6.95492 7.55666L6.83325 8.64L5.65992 9.135C4.63659 9.56611 3.77103 10.2039 3.06325 11.0483C2.35436 11.8928 1.99992 12.8683 1.99992 13.975C1.99992 15.3639 2.48603 16.5444 3.45825 17.5167C4.43047 18.4889 5.61103 18.975 6.99992 18.975Z" fill="#4CAA42"/>
</svg>
