<svg width="40" height="40" viewBox="0 0 40 40" fill="none" xmlns="http://www.w3.org/2000/svg">
<path d="M6.66667 5H33.3333C33.7754 5 34.1993 5.17559 34.5118 5.48816C34.8244 5.80072 35 6.22464 35 6.66667V33.3333C35 33.7754 34.8244 34.1993 34.5118 34.5118C34.1993 34.8244 33.7754 35 33.3333 35H6.66667C6.22464 35 5.80072 34.8244 5.48816 34.5118C5.17559 34.1993 5 33.7754 5 33.3333V6.66667C5 6.22464 5.17559 5.80072 5.48816 5.48816C5.80072 5.17559 6.22464 5 6.66667 5ZM8.33333 8.33333V31.6667H31.6667V8.33333H8.33333ZM15 11.6667H20.8333C22.3804 11.6667 23.8642 12.2812 24.9581 13.3752C26.0521 14.4692 26.6667 15.9529 26.6667 17.5C26.6667 19.0471 26.0521 20.5308 24.9581 21.6248C23.8642 22.7188 22.3804 23.3333 20.8333 23.3333H18.3333V28.3333H15V11.6667ZM18.3333 15V20H20.8333C21.4964 20 22.1323 19.7366 22.6011 19.2678C23.0699 18.7989 23.3333 18.163 23.3333 17.5C23.3333 16.837 23.0699 16.2011 22.6011 15.7322C22.1323 15.2634 21.4964 15 20.8333 15H18.3333Z" fill="#4CAA42"/>
</svg>
