<svg width="40" height="40" viewBox="0 0 40 40" fill="none" xmlns="http://www.w3.org/2000/svg">
<path d="M37.2266 35.7812C37.124 35.9096 36.9972 36.0164 36.8533 36.0957C36.7095 36.1749 36.5514 36.2251 36.3881 36.2432C36.2249 36.2613 36.0597 36.2471 35.9019 36.2014C35.7442 36.1556 35.597 36.0792 35.4688 35.9766C35.4109 35.9297 29.4031 31.25 20 31.25C10.5969 31.25 4.5875 35.9375 4.53125 35.9781C4.40291 36.0807 4.25561 36.157 4.09777 36.2027C3.93993 36.2484 3.77465 36.2625 3.61134 36.2443C3.28154 36.2075 2.97986 36.0412 2.77266 35.782C2.56546 35.5228 2.46972 35.1919 2.50649 34.8621C2.54327 34.5323 2.70955 34.2306 2.96875 34.0234C3.22344 33.8203 8.9875 29.2953 18.3266 28.7969C17.8408 26.8613 17.6672 24.8606 17.8125 22.8703C18.0844 19.4781 19.5188 14.9594 24.5313 11.5453C23.676 11.3332 22.7967 11.2339 21.9156 11.25C18.9469 11.3469 17.0813 13.0797 16.2125 16.55C16.1455 16.821 15.9897 17.0618 15.77 17.234C15.5502 17.4061 15.2792 17.4998 15 17.5C14.8978 17.5005 14.7959 17.4879 14.6969 17.4625C14.3753 17.3821 14.0989 17.1772 13.9284 16.893C13.7578 16.6088 13.7072 16.2684 13.7875 15.9469C15.2328 10.1734 18.9609 8.85 21.8344 8.75937C22.9756 8.73454 24.115 8.8633 25.2219 9.14219C24.6234 8.15312 23.7484 7.12187 22.5328 6.60312C20.9703 5.94062 19.0688 6.22969 16.8594 7.46406C16.5693 7.62568 16.2269 7.66544 15.9075 7.5746C15.5881 7.48376 15.3179 7.26977 15.1563 6.97969C14.9946 6.6896 14.9549 6.3472 15.0457 6.02781C15.1365 5.70841 15.3505 5.43818 15.6406 5.27656C18.5688 3.64375 21.2219 3.31719 23.5281 4.30781C25.4797 5.14531 26.7672 6.77344 27.5703 8.21406C28.5359 6.70781 29.7391 5.6875 31.0688 5.25469C32.9219 4.65 34.9188 5.14219 37.0063 6.71875C37.2591 6.92253 37.4227 7.2167 37.4624 7.53898C37.5021 7.86126 37.4149 8.18635 37.2192 8.44544C37.0234 8.70453 36.7345 8.87729 36.4137 8.92713C36.0928 8.97698 35.7651 8.9 35.5 8.7125C34.1078 7.66094 32.8797 7.29687 31.8516 7.62969C30.7125 7.99687 29.8406 9.19219 29.2938 10.225C30.4181 10.4529 31.4999 10.8552 32.5 11.4172C34.7828 12.7219 37.5 15.4875 37.5 21.2516C37.5 21.5831 37.3683 21.901 37.1339 22.1354C36.8995 22.3699 36.5815 22.5016 36.25 22.5016C35.9185 22.5016 35.6005 22.3699 35.3661 22.1354C35.1317 21.901 35 21.5831 35 21.2516C35 17.5859 33.7391 15.0016 31.25 13.5953C30.9601 13.4306 30.66 13.2845 30.3516 13.1578C31.1386 14.7579 31.4146 16.5612 31.1422 18.3234C30.9457 19.6272 30.4738 20.8741 29.7578 21.9812C29.5662 22.25 29.2761 22.432 28.9508 22.4876C28.6254 22.5433 28.2913 22.468 28.0213 22.2782C27.7513 22.0884 27.5673 21.7996 27.5094 21.4746C27.4516 21.1497 27.5246 20.8151 27.7125 20.5437C27.8281 20.3734 30.2641 16.7344 27.2031 12.8297C22.9844 15.2062 20.6578 18.65 20.3031 23.0781C20.165 24.9965 20.3676 26.9242 20.9016 28.7719C30.6906 29.0547 36.7641 33.8234 37.0266 34.0312C37.2841 34.2375 37.4497 34.5372 37.4872 34.865C37.5246 35.1929 37.431 35.5222 37.2266 35.7812ZM3.75 21.875C3.75 21.0097 4.00659 20.1638 4.48732 19.4444C4.96806 18.7249 5.65134 18.1642 6.45076 17.833C7.25019 17.5019 8.12986 17.4153 8.97852 17.5841C9.82719 17.7529 10.6067 18.1696 11.2186 18.7814C11.8305 19.3933 12.2471 20.1728 12.4159 21.0215C12.5848 21.8701 12.4981 22.7498 12.167 23.5492C11.8358 24.3487 11.2751 25.0319 10.5556 25.5127C9.83616 25.9934 8.9903 26.25 8.125 26.25C6.96468 26.25 5.85188 25.7891 5.03141 24.9686C4.21094 24.1481 3.75 23.0353 3.75 21.875ZM6.25 21.875C6.25 22.2458 6.35997 22.6083 6.566 22.9167C6.77203 23.225 7.06486 23.4654 7.40747 23.6073C7.75008 23.7492 8.12708 23.7863 8.4908 23.714C8.85451 23.6416 9.18861 23.463 9.45083 23.2008C9.71305 22.9386 9.89163 22.6045 9.96398 22.2408C10.0363 21.8771 9.99919 21.5001 9.85728 21.1575C9.71536 20.8149 9.47504 20.522 9.1667 20.316C8.85836 20.11 8.49584 20 8.125 20C7.62772 20 7.15081 20.1975 6.79918 20.5492C6.44755 20.9008 6.25 21.3777 6.25 21.875Z" fill="#4CAA42"/>
</svg>
