<svg width="40" height="40" viewBox="0 0 40 40" fill="none" xmlns="http://www.w3.org/2000/svg">
<path d="M37.5 32.8125H35.9375V13.75C35.9375 13.5014 35.8387 13.2629 35.6629 13.0871C35.4871 12.9113 35.2486 12.8125 35 12.8125H25C24.7514 12.8125 24.5129 12.9113 24.3371 13.0871C24.1613 13.2629 24.0625 13.5014 24.0625 13.75V20.3125H15.9375V6.25C15.9375 6.00136 15.8387 5.7629 15.6629 5.58709C15.4871 5.41127 15.2486 5.3125 15 5.3125H5C4.75136 5.3125 4.5129 5.41127 4.33709 5.58709C4.16127 5.7629 4.0625 6.00136 4.0625 6.25V32.8125H2.5C2.25136 32.8125 2.0129 32.9113 1.83709 33.0871C1.66127 33.2629 1.5625 33.5014 1.5625 33.75C1.5625 33.9986 1.66127 34.2371 1.83709 34.4129C2.0129 34.5887 2.25136 34.6875 2.5 34.6875H37.5C37.7486 34.6875 37.9871 34.5887 38.1629 34.4129C38.3387 34.2371 38.4375 33.9986 38.4375 33.75C38.4375 33.5014 38.3387 33.2629 38.1629 33.0871C37.9871 32.9113 37.7486 32.8125 37.5 32.8125ZM25.9375 14.6875H34.0625V32.8125H25.9375V14.6875ZM24.0625 22.1875V32.8125H15.9375V22.1875H24.0625ZM5.9375 7.1875H14.0625V32.8125H5.9375V7.1875ZM10.9375 11.25V13.75C10.9375 13.9986 10.8387 14.2371 10.6629 14.4129C10.4871 14.5887 10.2486 14.6875 10 14.6875C9.75136 14.6875 9.5129 14.5887 9.33709 14.4129C9.16127 14.2371 9.0625 13.9986 9.0625 13.75V11.25C9.0625 11.0014 9.16127 10.7629 9.33709 10.5871C9.5129 10.4113 9.75136 10.3125 10 10.3125C10.2486 10.3125 10.4871 10.4113 10.6629 10.5871C10.8387 10.7629 10.9375 11.0014 10.9375 11.25ZM10.9375 18.75V21.25C10.9375 21.4986 10.8387 21.7371 10.6629 21.9129C10.4871 22.0887 10.2486 22.1875 10 22.1875C9.75136 22.1875 9.5129 22.0887 9.33709 21.9129C9.16127 21.7371 9.0625 21.4986 9.0625 21.25V18.75C9.0625 18.5014 9.16127 18.2629 9.33709 18.0871C9.5129 17.9113 9.75136 17.8125 10 17.8125C10.2486 17.8125 10.4871 17.9113 10.6629 18.0871C10.8387 18.2629 10.9375 18.5014 10.9375 18.75ZM10.9375 26.25V28.75C10.9375 28.9986 10.8387 29.2371 10.6629 29.4129C10.4871 29.5887 10.2486 29.6875 10 29.6875C9.75136 29.6875 9.5129 29.5887 9.33709 29.4129C9.16127 29.2371 9.0625 28.9986 9.0625 28.75V26.25C9.0625 26.0014 9.16127 25.7629 9.33709 25.5871C9.5129 25.4113 9.75136 25.3125 10 25.3125C10.2486 25.3125 10.4871 25.4113 10.6629 25.5871C10.8387 25.7629 10.9375 26.0014 10.9375 26.25ZM19.0625 28.75V26.25C19.0625 26.0014 19.1613 25.7629 19.3371 25.5871C19.5129 25.4113 19.7514 25.3125 20 25.3125C20.2486 25.3125 20.4871 25.4113 20.6629 25.5871C20.8387 25.7629 20.9375 26.0014 20.9375 26.25V28.75C20.9375 28.9986 20.8387 29.2371 20.6629 29.4129C20.4871 29.5887 20.2486 29.6875 20 29.6875C19.7514 29.6875 19.5129 29.5887 19.3371 29.4129C19.1613 29.2371 19.0625 28.9986 19.0625 28.75ZM29.0625 28.75V26.25C29.0625 26.0014 29.1613 25.7629 29.3371 25.5871C29.5129 25.4113 29.7514 25.3125 30 25.3125C30.2486 25.3125 30.4871 25.4113 30.6629 25.5871C30.8387 25.7629 30.9375 26.0014 30.9375 26.25V28.75C30.9375 28.9986 30.8387 29.2371 30.6629 29.4129C30.4871 29.5887 30.2486 29.6875 30 29.6875C29.7514 29.6875 29.5129 29.5887 29.3371 29.4129C29.1613 29.2371 29.0625 28.9986 29.0625 28.75ZM29.0625 21.25V18.75C29.0625 18.5014 29.1613 18.2629 29.3371 18.0871C29.5129 17.9113 29.7514 17.8125 30 17.8125C30.2486 17.8125 30.4871 17.9113 30.6629 18.0871C30.8387 18.2629 30.9375 18.5014 30.9375 18.75V21.25C30.9375 21.4986 30.8387 21.7371 30.6629 21.9129C30.4871 22.0887 30.2486 22.1875 30 22.1875C29.7514 22.1875 29.5129 22.0887 29.3371 21.9129C29.1613 21.7371 29.0625 21.4986 29.0625 21.25Z" fill="#4CAA42"/>
</svg>
