<svg width="30" height="36" viewBox="0 0 30 36" fill="none" xmlns="http://www.w3.org/2000/svg">
<path d="M11.6667 34.6667V23.7167M15 16.3334H15.0167M15 9.66669H15.0167M18.3333 23.7167V34.6667M20 24.6667C18.5575 23.5848 16.8031 23 15 23C13.1969 23 11.4425 23.5848 9.99999 24.6667M21.6667 16.3334H21.6833M21.6667 9.66669H21.6833M8.33333 16.3334H8.35M8.33333 9.66669H8.35" stroke="#4CAA42" stroke-width="2" stroke-linecap="round" stroke-linejoin="round"/>
<path d="M25 1.33334H5C3.15905 1.33334 1.66666 2.82573 1.66666 4.66668V31.3333C1.66666 33.1743 3.15905 34.6667 5 34.6667H25C26.8409 34.6667 28.3333 33.1743 28.3333 31.3333V4.66668C28.3333 2.82573 26.8409 1.33334 25 1.33334Z" stroke="#4CAA42" stroke-width="2" stroke-linecap="round" stroke-linejoin="round"/>
</svg>
