<svg width="40" height="40" viewBox="0 0 40 40" fill="none" xmlns="http://www.w3.org/2000/svg">
<g clip-path="url(#clip0_958_482)">
<path d="M1.49343 28.5808C16.6948 24.2596 22.251 32.992 39.1247 28.5875C39.7509 28.424 40.126 27.7838 39.9626 27.1576C39.7991 26.5314 39.1589 26.1564 38.5327 26.3197C35.22 27.1845 32.3486 27.5046 29.7484 27.508L26.3509 22.0322C28.3592 24.5276 32.0916 24.6714 34.2785 22.346C35.24 21.3236 35.7458 19.988 35.7028 18.5852C35.5586 13.8825 29.7968 11.7724 26.6236 15.1466C25.095 16.7721 24.8177 19.0832 25.6784 20.9481L21.0296 13.4556L27.9282 11.4649C30.0706 10.8467 31.0831 8.39432 29.9946 6.44378C29.2042 5.02753 27.5637 4.35237 26.0056 4.80206L15.5616 7.81589C12.8537 8.59737 11.6411 11.7452 13.128 14.1417L16.2847 19.2295C14.0091 20.642 6.79171 25.1176 6.71507 25.1707C4.90343 25.3622 2.96327 25.7264 0.852724 26.3264C0.230224 26.5033 -0.131026 27.1514 0.0459271 27.774C0.222802 28.3967 0.871162 28.7578 1.49343 28.5808ZM28.3309 16.7524C29.434 15.5794 31.2754 15.5262 32.445 16.6261C33.6167 17.7281 33.6734 19.5684 32.5713 20.7403C31.4695 21.9119 29.629 21.9687 28.4571 20.8666C27.2853 19.7646 27.2287 17.9242 28.3309 16.7524ZM18.8939 18.9897L15.1194 12.9062C14.4528 11.8317 14.9955 10.4187 16.2113 10.0678L26.6553 7.05401C27.1605 6.90807 27.6918 7.12706 27.948 7.58596C28.3014 8.21932 27.9711 9.01307 27.2784 9.213L18.8931 11.6328C18.1468 11.8482 17.8134 12.7177 18.2223 13.3765L26.9165 27.3892C21.4487 26.9302 17.006 25.2811 11.3805 25.0307L18.516 20.6032C19.0659 20.2621 19.2352 19.5396 18.8939 18.9897Z" fill="#4CAA42"/>
<path d="M38.5319 31.7885C22.3879 36.0027 16.723 27.2833 0.851747 31.7951C0.229247 31.9721 -0.132003 32.6202 0.0449505 33.2428C0.221904 33.8654 0.870263 34.2266 1.49261 34.0496C16.6939 29.7283 22.2502 38.4608 39.1239 34.0562C39.7501 33.8928 40.1252 33.2526 39.9617 32.6264C39.7983 32.0001 39.1581 31.6251 38.5319 31.7885Z" fill="#4CAA42"/>
</g>
<defs>
<clipPath id="clip0_958_482">
<rect width="40" height="40" fill="white"/>
</clipPath>
</defs>
</svg>
