<svg width="40" height="40" viewBox="0 0 40 40" fill="none" xmlns="http://www.w3.org/2000/svg">
<path d="M19.9999 25C19.011 25 18.0443 25.2933 17.2221 25.8427C16.3998 26.3921 15.7589 27.173 15.3805 28.0866C15.0021 29.0002 14.9031 30.0056 15.096 30.9755C15.2889 31.9454 15.7651 32.8363 16.4644 33.5355C17.1636 34.2348 18.0545 34.711 19.0245 34.9039C19.9944 35.0969 20.9997 34.9978 21.9133 34.6194C22.827 34.241 23.6078 33.6001 24.1573 32.7779C24.7067 31.9556 24.9999 30.9889 24.9999 30C24.9999 28.6739 24.4731 27.4022 23.5354 26.4645C22.5978 25.5268 21.326 25 19.9999 25ZM19.9999 31.6667C19.6703 31.6667 19.348 31.5689 19.074 31.3858C18.7999 31.2027 18.5863 30.9424 18.4601 30.6378C18.334 30.3333 18.301 29.9982 18.3653 29.6749C18.4296 29.3516 18.5883 29.0546 18.8214 28.8215C19.0545 28.5884 19.3515 28.4297 19.6748 28.3654C19.9981 28.3011 20.3332 28.3341 20.6377 28.4602C20.9423 28.5864 21.2026 28.8 21.3857 29.0741C21.5688 29.3481 21.6666 29.6704 21.6666 30C21.6666 30.442 21.491 30.866 21.1784 31.1785C20.8659 31.4911 20.4419 31.6667 19.9999 31.6667ZM19.9999 18.3333C16.9078 18.344 13.9442 19.5714 11.7499 21.75C11.4395 22.0623 11.2652 22.4847 11.2652 22.925C11.2652 23.3653 11.4395 23.7877 11.7499 24.1C12.0622 24.4104 12.4846 24.5847 12.9249 24.5847C13.3652 24.5847 13.7876 24.4104 14.0999 24.1C14.874 23.324 15.7936 22.7082 16.806 22.2881C17.8184 21.868 18.9038 21.6518 19.9999 21.6518C21.096 21.6518 22.1814 21.868 23.1938 22.2881C24.2062 22.7082 25.1258 23.324 25.8999 24.1C26.2076 24.414 26.627 24.5937 27.0666 24.6C27.4047 24.6195 27.7408 24.5354 28.03 24.3591C28.3192 24.1828 28.5478 23.9225 28.6854 23.613C28.8229 23.3035 28.8629 22.9594 28.8 22.6266C28.7371 22.2937 28.5743 21.988 28.3332 21.75C27.2366 20.6612 25.9363 19.799 24.5064 19.2128C23.0766 18.6266 21.5452 18.3277 19.9999 18.3333ZM19.9999 11.6667C15.1399 11.6796 10.4809 13.6079 7.03324 17.0333C6.87784 17.1887 6.75457 17.3732 6.67047 17.5763C6.58637 17.7793 6.54308 17.9969 6.54308 18.2167C6.54308 18.6605 6.7194 19.0862 7.03324 19.4C7.34707 19.7138 7.77273 19.8902 8.21657 19.8902C8.6604 19.8902 9.08606 19.7138 9.3999 19.4C12.2124 16.591 16.0249 15.0132 19.9999 15.0132C23.9749 15.0132 27.7874 16.591 30.5999 19.4C30.7556 19.5545 30.9403 19.6767 31.1434 19.7596C31.3465 19.8426 31.5639 19.8846 31.7832 19.8833C32.0026 19.8846 32.22 19.8426 32.4231 19.7596C32.6261 19.6767 32.8108 19.5545 32.9666 19.4C33.1228 19.2451 33.2468 19.0607 33.3314 18.8576C33.416 18.6545 33.4596 18.4367 33.4596 18.2167C33.4596 17.9967 33.416 17.7788 33.3314 17.5757C33.2468 17.3726 33.1228 17.1883 32.9666 17.0333C29.5189 13.6079 24.8599 11.6796 19.9999 11.6667ZM37.6832 12.3167C35.3616 9.99351 32.6049 8.15059 29.5707 6.89322C26.5365 5.63585 23.2843 4.98868 19.9999 4.98868C16.7155 4.98868 13.4633 5.63585 10.4291 6.89322C7.39493 8.15059 4.63824 9.99351 2.31657 12.3167C2.00273 12.6305 1.82642 13.0562 1.82642 13.5C1.82642 13.9438 2.00273 14.3695 2.31657 14.6833C2.63041 14.9972 3.05607 15.1735 3.4999 15.1735C3.94374 15.1735 4.3694 14.9972 4.68324 14.6833C8.7462 10.6225 14.2555 8.3413 19.9999 8.3413C25.7443 8.3413 31.2536 10.6225 35.3166 14.6833C35.4715 14.8396 35.6558 14.9635 35.8589 15.0482C36.062 15.1328 36.2799 15.1763 36.4999 15.1763C36.7199 15.1763 36.9378 15.1328 37.1409 15.0482C37.344 14.9635 37.5283 14.8396 37.6832 14.6833C37.8395 14.5284 37.9634 14.3441 38.0481 14.141C38.1327 13.9379 38.1762 13.72 38.1762 13.5C38.1762 13.28 38.1327 13.0621 38.0481 12.859C37.9634 12.6559 37.8395 12.4716 37.6832 12.3167Z" fill="#4CAA42"/>
</svg>
